<?xml version="1.0" encoding="utf-8"?>
<!-- Generator: Adobe Illustrator 23.0.5, SVG Export Plug-In . SVG Version: 6.00 Build 0)  -->
<svg version="1.1" id="Calque_1" xmlns="http://www.w3.org/2000/svg" xmlns:xlink="http://www.w3.org/1999/xlink" x="0px" y="0px"
	 viewBox="0 0 224 94" style="enable-background:new 0 0 224 94;" xml:space="preserve">
<style type="text/css">
	.st0{fill:#FFFFFF;}
	.st1{fill-rule:evenodd;clip-rule:evenodd;fill:#FFFFFF;}
</style>
<g>
	<g>
		<g>
			<g>
				<g>
					<path id="SVGID_1_" class="st0" d="M120,54.8c-0.2,0.2-0.4,0.4-0.5,0.6h1.6c0-0.2,0-0.3-0.1-0.5s-0.3-0.3-0.6-0.3
						C120.3,54.6,120.1,54.7,120,54.8 M124.8,54.5c-0.4,0.2-0.6,0.6-0.7,0.9h2.5c0.1-0.3,0-0.5-0.1-0.7c-0.2-0.3-0.5-0.5-0.9-0.5
						C125.4,54.2,125.1,54.3,124.8,54.5 M118.7,53.3c-0.3,0.2-0.5,0.6-0.3,0.9c0.1,0.3,0.5,0.3,0.9,0.1c0.3-0.2,0.5-0.6,0.3-0.9
						c-0.1-0.2-0.2-0.2-0.4-0.2C119,53.2,118.8,53.3,118.7,53.3 M122.6,53.1c-0.5,0.3-0.8,1-0.5,1.4c0.2,0.4,0.8,0.5,1.4,0.2
						c0.5-0.3,0.8-1,0.5-1.4c-0.1-0.3-0.4-0.4-0.7-0.4C123.1,52.9,122.8,53,122.6,53.1 M128.2,52.7c-0.8,0.5-1.2,1.5-0.8,2.2
						c0.1,0.2,0.2,0.3,0.4,0.4l0.7-2.8C128.4,52.6,128.3,52.6,128.2,52.7 M129.1,52.4l-0.8,3.1c0.4,0,0.8-0.1,1.2-0.3
						c0.8-0.5,1.2-1.5,0.8-2.2C130.1,52.6,129.7,52.4,129.1,52.4C129.2,52.4,129.2,52.4,129.1,52.4 M120.7,51.7
						c-0.4,0.3-0.6,0.8-0.4,1.1s0.7,0.4,1.1,0.1c0.4-0.3,0.6-0.8,0.4-1.1c-0.1-0.2-0.3-0.3-0.6-0.3
						C121.1,51.5,120.9,51.6,120.7,51.7 M125.6,51.3c-0.6,0.4-0.9,1.2-0.7,1.7c0.3,0.5,1,0.6,1.7,0.2c0.6-0.4,0.9-1.2,0.7-1.8
						c-0.2-0.3-0.5-0.5-0.9-0.5C126.2,51,125.9,51.1,125.6,51.3 M119.5,50c-0.3,0.2-0.5,0.6-0.3,0.9c0.1,0.3,0.5,0.3,0.9,0.1
						c0.3-0.2,0.5-0.6,0.3-0.9c-0.1-0.2-0.3-0.2-0.4-0.2C119.8,49.9,119.7,49.9,119.5,50 M123.5,49.8c-0.5,0.3-0.8,1-0.5,1.4
						c0.2,0.4,0.8,0.5,1.4,0.2c0.5-0.3,0.8-1,0.5-1.4c-0.1-0.3-0.4-0.4-0.7-0.4C123.9,49.5,123.7,49.6,123.5,49.8 M129.1,49.3
						c-0.8,0.5-1.2,1.5-0.8,2.2c0.1,0.2,0.2,0.3,0.4,0.4l0.7-2.8C129.3,49.2,129.2,49.2,129.1,49.3 M130,49l-0.8,3.1
						c0.4,0,0.8-0.1,1.2-0.3c0.8-0.5,1.2-1.5,0.8-2.2C131,49.2,130.6,49,130,49C130.1,49,130,49,130,49 M121.6,48.3
						c-0.4,0.3-0.6,0.8-0.4,1.1c0.2,0.4,0.7,0.4,1.1,0.1c0.4-0.3,0.6-0.8,0.4-1.1c-0.1-0.2-0.3-0.3-0.6-0.3
						C122,48.1,121.8,48.2,121.6,48.3 M126.5,47.9c-0.6,0.4-0.9,1.2-0.7,1.8c0.3,0.5,1,0.6,1.7,0.2c0.6-0.4,0.9-1.2,0.7-1.8
						c-0.2-0.3-0.5-0.5-0.9-0.5C127,47.6,126.7,47.7,126.5,47.9 M120.4,46.6c-0.3,0.2-0.5,0.6-0.3,0.9c0.1,0.3,0.5,0.3,0.9,0.1
						c0.3-0.2,0.5-0.6,0.3-0.9c-0.1-0.2-0.3-0.2-0.4-0.2C120.7,46.5,120.5,46.5,120.4,46.6 M124.3,46.3c-0.5,0.3-0.8,1-0.5,1.4
						c0.2,0.4,0.8,0.5,1.4,0.2c0.5-0.3,0.8-1,0.5-1.4c-0.1-0.3-0.4-0.4-0.7-0.4C124.8,46.1,124.5,46.2,124.3,46.3 M129.9,45.9
						c-0.8,0.5-1.2,1.5-0.8,2.2c0.1,0.2,0.2,0.3,0.4,0.4l0.7-2.8C130.1,45.8,130,45.8,129.9,45.9 M130.8,45.6l-0.8,3.1
						c0.4,0,0.8-0.1,1.2-0.3c0.8-0.5,1.2-1.5,0.8-2.2C131.8,45.8,131.4,45.6,130.8,45.6C130.9,45.6,130.9,45.6,130.8,45.6
						 M122.5,44.8c-0.4,0.3-0.6,0.8-0.4,1.1s0.7,0.4,1.1,0.1c0.4-0.3,0.6-0.8,0.4-1.1c-0.1-0.2-0.3-0.3-0.6-0.3
						C122.8,44.7,122.6,44.7,122.5,44.8 M127.3,44.5c-0.6,0.4-0.9,1.2-0.7,1.8c0.3,0.5,1,0.6,1.7,0.2c0.6-0.4,0.9-1.2,0.7-1.7
						c-0.2-0.3-0.5-0.5-0.9-0.5C127.9,44.2,127.6,44.3,127.3,44.5 M121.2,43.2c-0.3,0.2-0.5,0.6-0.3,0.9c0.1,0.3,0.5,0.3,0.9,0.1
						c0.3-0.2,0.5-0.6,0.3-0.9c-0.1-0.2-0.3-0.2-0.4-0.2C121.5,43.1,121.4,43.2,121.2,43.2 M125.2,42.9c-0.5,0.3-0.8,1-0.5,1.4
						c0.2,0.4,0.8,0.5,1.3,0.2s0.8-1,0.5-1.4c-0.1-0.3-0.4-0.4-0.7-0.4C125.6,42.7,125.4,42.8,125.2,42.9 M130.8,42.5
						c-0.8,0.5-1.2,1.5-0.8,2.2c0.1,0.2,0.2,0.3,0.4,0.4l0.4-1.6c0.1-0.4,0.3-0.8,0.4-1.2C131.1,42.3,130.9,42.4,130.8,42.5
						 M131.3,43.7l-0.4,1.5c0.4,0,0.8-0.1,1.2-0.3c0.8-0.5,1.2-1.5,0.8-2.2c-0.2-0.4-0.5-0.6-0.9-0.6
						C131.6,42.7,131.4,43.2,131.3,43.7 M123.3,41.4c-0.4,0.3-0.6,0.8-0.4,1.1s0.7,0.4,1.1,0.1c0.4-0.3,0.6-0.8,0.4-1.1
						c-0.1-0.2-0.3-0.3-0.6-0.3C123.7,41.2,123.5,41.3,123.3,41.4 M128.2,41c-0.6,0.4-0.9,1.2-0.7,1.7c0.3,0.5,1,0.6,1.7,0.2
						c0.6-0.4,0.9-1.2,0.7-1.7c-0.2-0.3-0.5-0.5-0.9-0.5C128.7,40.8,128.4,40.9,128.2,41 M132.1,41.9c0.3,0,0.5-0.1,0.8-0.3
						c0.5-0.3,0.8-0.8,0.9-1.3C133.1,40.7,132.6,41.3,132.1,41.9 M122.1,39.9c-0.3,0.2-0.5,0.6-0.3,0.9c0.2,0.3,0.5,0.3,0.9,0.1
						c0.3-0.2,0.5-0.6,0.3-0.9c-0.1-0.2-0.3-0.2-0.4-0.2C122.3,39.8,122.2,39.8,122.1,39.9 M126,39.6c-0.5,0.3-0.8,1-0.5,1.4
						c0.2,0.4,0.8,0.5,1.4,0.2c0.5-0.3,0.8-1,0.5-1.4c-0.1-0.3-0.4-0.4-0.7-0.4C126.5,39.4,126.2,39.4,126,39.6 M131.6,39.1
						c-0.8,0.5-1.2,1.5-0.8,2.2c0.1,0.3,0.4,0.5,0.7,0.5c0.5-0.9,1.3-1.6,2.4-2.2c0-0.1-0.1-0.2-0.1-0.2c-0.2-0.4-0.6-0.6-1.1-0.6
						C132.3,38.8,131.9,38.9,131.6,39.1 M123.7,38.8c-0.1,0.2,0,0.4,0,0.5c0.2,0.3,0.7,0.4,1.1,0.1c0.3-0.2,0.4-0.4,0.5-0.7h-1.6
						V38.8z M128.3,38.7c-0.1,0.3-0.1,0.6,0.1,0.8c0.3,0.5,1,0.6,1.7,0.2c0.4-0.3,0.6-0.6,0.7-1H128.3z"/>
				</g>
			</g>
			<g>
				<g>
					<path id="SVGID_3_" class="st0" d="M195.8,39.9h1.2c-0.9-9-3.5-16.6-7-21.5C193,23.7,195.1,31.2,195.8,39.9"/>
				</g>
			</g>
			<g>
				<g>
					<path id="SVGID_5_" class="st0" d="M195.8,54c-0.8,8.6-2.9,16.2-5.9,21.5c3.5-4.9,6.1-12.5,7-21.5H195.8z"/>
				</g>
			</g>
			<g>
				<g>
					<path id="SVGID_7_" class="st0" d="M138.2,38.7c-1.3,0-2.5,0.4-3.8,1.1c-1.6,0.9-2.7,2.1-3,3.7l-3,12l0,0h1.2
						c1.3,0,2.5-0.3,3.8-1.1c1.6-0.9,2.7-2.1,3.1-3.7l1.8-7.2c0.2-0.7,0.5-1.2,0.9-1.7s0.9-0.7,1.3-0.7h6.8c0.5,0,0.8,0.2,1,0.7
						c0.2,0.4,0.2,1,0.1,1.6l-0.6,2.4H141c-0.5,0-0.9,0.2-1.4,0.7c-0.4,0.5-0.8,1.1-0.9,1.7h8.5l-0.6,2.4c-0.4,1.6,0,2.8,1.2,3.7
						c0.9,0.7,2,1.1,3.3,1.1h1.2l3-12c0.4-1.6,0-2.8-1.2-3.7c-0.9-0.7-2-1.1-3.3-1.1L138.2,38.7L138.2,38.7z"/>
				</g>
			</g>
			<g>
				<g>
					<path id="SVGID_9_" class="st0" d="M163.4,38.7c-1.3,0-2.5,0.4-3.8,1.1c-1.6,0.9-2.7,2.1-3,3.7l-1.8,7.1
						c-0.4,1.6,0,2.8,1.2,3.7c0.9,0.7,2,1.1,3.3,1.1h12.6c1.3,0,2.5-0.3,3.8-1.1c1.6-0.9,2.6-2.2,3-3.7h-6.9
						c-0.2,0.7-0.5,1.2-0.9,1.7c-0.5,0.5-0.9,0.7-1.4,0.7h-6.8c-0.5,0-0.8-0.2-1-0.7s-0.2-1-0.1-1.7l1.8-7.2
						c0.2-0.7,0.5-1.2,0.9-1.7s0.9-0.7,1.4-0.7h6.8c0.5,0,0.8,0.2,1,0.7s0.2,1,0.1,1.7h6.9c0.4-1.6,0-2.8-1.2-3.7
						c-0.9-0.7-2-1.1-3.3-1.1L163.4,38.7L163.4,38.7z"/>
				</g>
			</g>
			<g>
				<g>
					<path id="SVGID_11_" class="st0" d="M191.4,46c-0.5,0-0.9,0.2-1.4,0.7c-0.4,0.5-0.7,1-0.9,1.7h13.6c0.5,0,0.9-0.2,1.4-0.7
						c0.4-0.5,0.7-1,0.9-1.7H191.4z M188.6,38.7c-1.3,0-2.5,0.4-3.8,1.1c-1.6,0.9-2.6,2.1-3,3.7l-1.8,7.2c-0.4,1.6,0,2.8,1.2,3.7
						c0.9,0.7,2,1.1,3.3,1.1h18.2c0.2-0.6,0.1-1.2-0.1-1.7c-0.2-0.5-0.6-0.7-1-0.7h-13.7c-0.6,0-1.9,0.1-1.1-2.4l1.8-7.2
						c0.2-0.7,0.5-1.2,0.9-1.7s0.9-0.7,1.4-0.7h13.7c0.5,0,0.9-0.2,1.4-0.7s0.8-1,0.9-1.7C206.9,38.7,188.6,38.7,188.6,38.7z"/>
				</g>
			</g>
			<g>
				<path class="st0" d="M119,64.4c-0.6,0-1.1-0.5-1.1-1.1v-3c0-0.6,0.5-1.1,1.1-1.1h1.7l0.2,0.7H119c-0.2,0-0.4,0.2-0.4,0.4v3
					c0,0.2,0.2,0.4,0.4,0.4h1.1v-2.2h0.8v3H119V64.4z"/>
				<path class="st0" d="M121.6,59.1h0.8v4.1c0,0.2,0.2,0.4,0.4,0.4h0.5l-0.2,0.7h-0.2c-0.6,0-1.1-0.5-1.1-1.1v-4.1H121.6z"/>
				<path class="st0" d="M124.7,64.4c-0.6,0-1.1-0.5-1.1-1.1v-1.5c0-0.6,0.5-1.1,1.1-1.1h0.8c0.6,0,1.1,0.5,1.1,1.1v1.5
					c0,0.6-0.5,1.1-1.1,1.1H124.7z M125.4,63.6c0.2,0,0.4-0.2,0.4-0.4v-1.5c0-0.2-0.2-0.4-0.4-0.4h-0.8c-0.2,0-0.4,0.2-0.4,0.4v1.5
					c0,0.2,0.2,0.4,0.4,0.4H125.4z"/>
				<path class="st0" d="M129.1,60.6c0.6,0,1.1,0.5,1.1,1.1v1.5c0,0.6-0.5,1.1-1.1,1.1h-1.9v-5.2h0.8v1.5
					C128,60.6,129.1,60.6,129.1,60.6z M129.5,61.8c0-0.2-0.2-0.4-0.4-0.4H128v2.2h1.1c0.2,0,0.4-0.2,0.4-0.4V61.8z"/>
				<path class="st0" d="M130.9,61.4l0.2-0.7h1.5c0.6,0,1.1,0.5,1.1,1.1v2.6h-1.9c-0.6,0-1.1-0.5-1.1-1.1s0.5-1.1,1.1-1.1h1.1v-0.4
					c0-0.2-0.2-0.4-0.4-0.4H130.9z M133,63.6v-0.7h-1.1c-0.2,0-0.4,0.2-0.4,0.4s0.2,0.4,0.4,0.4h1.1V63.6z"/>
				<path class="st0" d="M134.5,59.1h0.8v4.1c0,0.2,0.2,0.4,0.4,0.4h0.5l-0.2,0.7h-0.2c-0.6,0-1.1-0.5-1.1-1.1v-4.1H134.5z"/>
				<path class="st0" d="M138.1,59.1h1.9c0.6,0,1.1,0.5,1.1,1.1v0.7c0,0.3-0.1,0.5-0.3,0.7c0.2,0.2,0.3,0.5,0.3,0.7v0.8
					c0,0.6-0.5,1.1-1.1,1.1h-1.9V59.1z M140,61.3c0.2,0,0.4-0.2,0.4-0.4v-0.7c0-0.2-0.2-0.4-0.4-0.4h-1.1v1.4h1.1V61.3z M138.8,62.1
					v1.6h1.1c0.2,0,0.4-0.2,0.4-0.4v-0.8c0-0.2-0.2-0.4-0.4-0.4C139.9,62.1,138.8,62.1,138.8,62.1z"/>
				<path class="st0" d="M143.6,63.6c0.2,0,0.4-0.2,0.4-0.4v-2.6h0.8v2.6c0,0.6-0.5,1.1-1.1,1.1h-0.8c-0.6,0-1.1-0.5-1.1-1.1v-2.6
					h0.8v2.6c0,0.2,0.2,0.4,0.4,0.4H143.6z"/>
				<path class="st0" d="M146.5,62.9c-0.6,0-1.1-0.5-1.1-1.1s0.5-1.1,1.1-1.1h1.7l0.2,0.7h-1.9c-0.2,0-0.4,0.2-0.4,0.4
					s0.2,0.4,0.4,0.4h0.8c0.6,0,1.1,0.5,1.1,1.1s-0.5,1.1-1.1,1.1h-1.7l-0.2-0.7h2c0.2,0,0.4-0.2,0.4-0.4s-0.2-0.4-0.4-0.4
					C147.4,62.9,146.5,62.9,146.5,62.9z"/>
				<path class="st0" d="M149.1,59.1h0.8v0.7h-0.8V59.1z M149.1,60.6h0.8v3.7h-0.8V60.6z"/>
				<path class="st0" d="M151.7,61.4c-0.2,0-0.4,0.2-0.4,0.4v2.6h-0.8v-2.6c0-0.6,0.5-1.1,1.1-1.1h0.8c0.6,0,1.1,0.5,1.1,1.1v2.6
					h-0.8v-2.6c0-0.2-0.2-0.4-0.4-0.4H151.7z"/>
				<path class="st0" d="M156.1,60.6c0.6,0,1.1,0.5,1.1,1.1v1.1H155v0.4c0,0.2,0.2,0.4,0.4,0.4h1.7l-0.2,0.7h-1.5
					c-0.6,0-1.1-0.5-1.1-1.1v-1.5c0-0.6,0.5-1.1,1.1-1.1H156.1z M155.4,61.4c-0.2,0-0.4,0.2-0.4,0.4v0.4h1.5v-0.4
					c0-0.2-0.2-0.4-0.4-0.4H155.4z"/>
				<path class="st0" d="M158.9,62.9c-0.6,0-1.1-0.5-1.1-1.1s0.5-1.1,1.1-1.1h1.7l0.2,0.7h-1.9c-0.2,0-0.4,0.2-0.4,0.4
					s0.2,0.4,0.5,0.4h0.8c0.6,0,1.1,0.5,1.1,1.1s-0.5,1.1-1.1,1.1H158l-0.2-0.7h2c0.2,0,0.4-0.2,0.4-0.4s-0.2-0.4-0.4-0.4
					C159.8,62.9,158.9,62.9,158.9,62.9z"/>
				<path class="st0" d="M162.5,62.9c-0.6,0-1.1-0.5-1.1-1.1s0.5-1.1,1.1-1.1h1.7l0.2,0.7h-1.9c-0.2,0-0.4,0.2-0.4,0.4
					s0.2,0.4,0.5,0.4h0.7c0.6,0,1.1,0.5,1.1,1.1s-0.5,1.1-1.1,1.1h-1.7l-0.2-0.7h2c0.2,0,0.4-0.2,0.4-0.4s-0.2-0.4-0.5-0.4
					C163.3,62.9,162.5,62.9,162.5,62.9z"/>
				<path class="st0" d="M167.1,60.6c0,0.8,2.3,0.9,2.3,2.1v0.5c0,0.6-0.5,1.1-1.1,1.1h-1.7l-0.2-0.7h2c0.2,0,0.4-0.2,0.4-0.4v-0.4
					c0-0.8-2.3-0.8-2.3-2.1v-0.5c0-0.6,0.5-1.1,1.1-1.1h1.7l0.2,0.7h-2c-0.2,0-0.4,0.2-0.4,0.4V60.6z"/>
				<path class="st0" d="M171.9,60.6c0.6,0,1.1,0.5,1.1,1.1v1.1h-2.3v0.4c0,0.2,0.2,0.4,0.4,0.4h1.7l-0.2,0.7h-1.5
					c-0.6,0-1.1-0.5-1.1-1.1v-1.5c0-0.6,0.5-1.1,1.1-1.1H171.9z M171.1,61.4c-0.2,0-0.4,0.2-0.4,0.4v0.4h1.5v-0.4
					c0-0.2-0.2-0.4-0.4-0.4H171.1z"/>
				<path class="st0" d="M176.2,60.6l0.2,0.7h-1.3c-0.4,0-0.8,0.4-0.8,0.7v2.2h-0.8v-3.7h0.8v0.7c0-0.4,0.4-0.7,0.8-0.7h1.1V60.6z"
					/>
				<path class="st0" d="M176.8,61.8v-1.1h0.8v1.1c0,0.6,0.8,1.8,0.8,1.8s0.8-1.2,0.8-1.8v-1.1h0.8v1.1c0,1-1.1,2.6-1.1,2.6H178
					C178,64.4,176.8,62.7,176.8,61.8"/>
				<path class="st0" d="M180.5,59.1h0.8v0.7h-0.8V59.1z M180.5,60.6h0.8v3.7h-0.8V60.6z"/>
				<path class="st0" d="M182,61.8c0-0.6,0.5-1.1,1.1-1.1h1.5l0.2,0.7h-1.7c-0.2,0-0.4,0.2-0.4,0.4v1.5c0,0.2,0.2,0.4,0.4,0.4h1.7
					l-0.1,0.7h-1.6c-0.6,0-1.1-0.5-1.1-1.1L182,61.8L182,61.8z"/>
				<path class="st0" d="M187.2,60.6c0.6,0,1.1,0.5,1.1,1.1v1.1H186v0.4c0,0.2,0.2,0.4,0.4,0.4h1.7l-0.2,0.7h-1.5
					c-0.6,0-1.1-0.5-1.1-1.1v-1.5c0-0.6,0.5-1.1,1.1-1.1H187.2z M186.4,61.4c-0.2,0-0.4,0.2-0.4,0.4v0.4h1.5v-0.4
					c0-0.2-0.2-0.4-0.4-0.4H186.4z"/>
				<path class="st0" d="M190,62.9c-0.6,0-1.1-0.5-1.1-1.1s0.5-1.1,1.1-1.1h1.7l0.2,0.7H190c-0.2,0-0.4,0.2-0.4,0.4s0.2,0.4,0.5,0.4
					h0.8c0.6,0,1.1,0.5,1.1,1.1s-0.5,1.1-1.1,1.1H189l-0.2-0.7h2c0.2,0,0.4-0.2,0.4-0.4s-0.2-0.4-0.5-0.4
					C190.7,62.9,190,62.9,190,62.9z"/>
				<polygon class="st0" points="41.7,50.2 32.3,50.2 30.7,47.2 41.7,47.2 				"/>
			</g>
			<g>
				<g>
					<path id="SVGID_13_" class="st0" d="M72.4,38c-0.4,0-0.8,0-1.2,0.1c-0.4,0-0.8,0.1-1.1,0.1c-0.3,0.1-0.7,0.1-1.1,0.2
						c-2.4,0.6-3.9,1.5-5,2.9c-0.7,0.9-1,2-1,3.1c0,1.2,0.8,2.2,1.3,2.8c0.6,0.6,1.3,1.1,2.4,1.5c0.8,0.3,1.7,0.6,3,0.8h0.2
						c0.8,0.2,1.7,0.3,2.6,0.5h0.1c0.1,0,0.2,0,0.3,0H73c0.2,0,0.4-0.2,0.6-0.4l0.1-0.1c0.5-0.5,0.9-0.9,1.3-1.4
						c0.4-0.4,0.9-0.9,1.3-1.3l0.1-0.1c0.1-0.1,0.3-0.3,0.4-0.4l0.3-0.5l-0.6-0.1c-0.3-0.1-0.7-0.1-1-0.2c-0.7-0.1-1.4-0.2-2.2-0.4
						c-0.1,0-0.2,0-0.4-0.1c-0.9-0.2-1.8-0.3-2.5-0.7c-0.3-0.2-0.6-0.8-0.4-1.2s0.6-0.6,1.1-0.8c0.6-0.3,1.2-0.4,1.7-0.5
						c0.2,0,0.4,0,0.7,0c1.1,0,2.1,0.2,2.9,0.4c1.2,0.3,2.3,0.6,3.1,1l0.3,0.1l0.2-0.2c0.4-0.4,0.9-0.9,1.3-1.3
						c0.4-0.4,0.9-0.9,1.3-1.3l0.4-0.4l-0.5-0.3c-1.1-0.7-2.6-1.1-4.6-1.5c-0.6-0.1-1.6-0.3-2.7-0.3h-0.1c-0.5,0-1.3,0-2.1,0
						C72.8,38,72.6,38,72.4,38"/>
				</g>
			</g>
			<g>
				<g>
					<path id="SVGID_17_" class="st0" d="M28.3,38.6c-0.9,0.2-1.8,0.4-2.7,0.8c-1.6,0.7-3,1.6-4,2.9c-1.2,1.4-1.9,3-2.1,4.9
						c-0.1,1.1-0.1,2.2,0.1,3.2c0.5,2.6,2,4.4,4.7,5.9c1.6,0.9,3.3,1.4,5.3,1.6c0.7,0.1,1.5,0.1,2.3,0.1c1.2,0,2.6-0.1,4.1-0.3
						c0.9-0.1,1.9-0.3,2.9-0.5s1.8-0.5,2.6-0.9l0.2-0.1v-0.3c0-1.4,0-2.9,0-4.3v-0.4h-0.4h-0.5c-0.7,0-1.5,0-2.2,0s-1.5,0-2.2,0
						c-0.3,0-0.5,0-0.8,0h-0.4v0.4c0,0.4,0,0.7,0,1.1c0,0.4,0,0.9,0,1.3c-0.6,0.2-1.5,0.3-2.4,0.3c-1.1,0-2.2-0.2-3.2-0.5h-0.1
						c-0.3-0.1-0.6-0.2-0.9-0.3c-1-0.6-1.7-1.6-1.9-3.2c-0.1-0.8-0.2-1.7-0.1-2.6c0.1-1.7,0.5-3,1.3-4c0.5-0.5,1.1-0.9,1.9-1.1
						c0.8-0.2,1.7-0.4,2.9-0.4c0.9,0,1.8,0.1,2.9,0.4c0.9,0.2,1.6,0.5,2.3,0.9l0.3,0.2l0.2-0.2c0.6-0.5,1.2-1,1.8-1.4
						c0.4-0.3,0.7-0.6,1.1-0.9l0.5-0.4l-0.5-0.3c-1.2-0.7-2.7-1.3-4.3-1.7c-1.3-0.3-3-0.5-4.8-0.5C30.8,38.3,29.5,38.4,28.3,38.6"/>
				</g>
			</g>
			<g>
				<g>
					<path id="SVGID_21_" class="st0" d="M49.7,42.4c0.3,0,0.6,0,0.9,0c0.3,0,0.6,0,1,0c0.2,0,0.5,0,0.7,0s0.4,0,0.7,0s0.6,0,0.9,0
						c0.7,0,1.4,0.4,1.8,0.8c0.4,0.4,0.4,1.3,0,1.7c-0.6,0.7-2.1,0.7-3.5,0.7c-0.4,0-0.9,0-1.4,0h-0.4v3.8h0.4c0.2,0,0.5,0,0.8,0
						c0.2,0,0.5,0,0.7,0s0.5,0,0.7,0c0.7,0,1.5,0,2.1,0.2c1.2,0.4,1.7,1.2,1.4,2.3c-0.3,1.3-1.8,1.5-3.9,1.5c-0.4,0-0.8,0-1.2,0
						s-0.8,0-1.2,0c-0.2,0-0.3,0-0.4,0L49.7,42.4L49.7,42.4z M43.9,38.1 M43.5,38.1v0.4v0.4c0,2.3,0,4.7,0,7c0,3.7,0,7.5,0,11.2v0.4
						h9c0.4,0,0.8,0,1.2,0s0.8,0,1.2,0c0.7,0,1.3,0,1.8-0.1c2.8-0.3,4.9-1.2,6.1-2.9c0.4-0.5,0.6-1.1,0.7-1.7
						c0.1-0.6,0.1-1.5-0.1-2.2c-0.1-0.5-0.4-1-0.9-1.5c-0.8-0.9-1.8-1.5-3.1-1.9c0.4-0.2,0.8-0.3,1.2-0.6c0.7-0.5,2.2-1.7,1.9-4
						c-0.3-1.7-1.5-2.5-2.7-3.2c-0.9-0.5-1.8-0.8-2.8-1s-2.2-0.3-3.4-0.3c-1.1,0-2.2,0-3.2,0H43.5z"/>
				</g>
			</g>
			<g>
				<path class="st1" d="M62.2,56c0.7-1,1.4-1.9,2.1-2.8c1.7,0.8,3.7,1.2,6.1,1.5c2.4,0.2,5,0,5.9-1.4c0.4-0.6,0.3-1.5-0.1-2
					s-1-0.8-1.6-1.1c1.2-1.2,2.4-2.4,3.6-3.5c1.7,0.7,3.3,1.4,4.2,2.9c0.3,0.5,0.4,1.2,0.5,1.9c0,1.5-0.7,2.6-1.4,3.4
					c-1.6,1.6-3.9,2.4-6.8,2.7s-6.3,0.1-8.8-0.4C64.6,56.9,63.3,56.5,62.2,56"/>
				<path class="st0" d="M21.9,63.9c-0.2,0.2-0.6,0.4-0.9,0.4s-0.6-0.1-0.9-0.3c-0.3-0.3-0.3-0.6-0.3-1.3s0-1,0.3-1.3
					c0.2-0.2,0.5-0.3,0.9-0.3c0.6,0,1.1,0.4,1.2,1h-0.4c-0.1-0.4-0.4-0.7-0.8-0.7c-0.2,0-0.4,0.1-0.6,0.2c-0.2,0.2-0.2,0.4-0.2,1.1
					c0,0.7,0,0.9,0.2,1.1c0.1,0.1,0.4,0.2,0.6,0.2s0.5-0.1,0.6-0.3s0.2-0.3,0.2-0.6v-0.2H21v-0.3h1.2V63
					C22.2,63.4,22.1,63.6,21.9,63.9"/>
				<polygon class="st0" points="23.1,64.2 23.1,61 23.4,61 23.4,63.9 25.1,63.9 25.1,64.2 				"/>
				<path class="st0" d="M27.7,63.9c-0.2,0.2-0.5,0.3-0.9,0.3c-0.3,0-0.6-0.1-0.9-0.3c-0.3-0.3-0.3-0.6-0.3-1.3s0-1,0.3-1.3
					c0.2-0.2,0.5-0.3,0.9-0.3c0.3,0,0.6,0.1,0.9,0.3c0.3,0.3,0.3,0.6,0.3,1.3C28,63.3,28,63.6,27.7,63.9 M27.4,61.5
					c-0.1-0.1-0.4-0.2-0.6-0.2s-0.4,0.1-0.6,0.2C26,61.7,26,61.9,26,62.6c0,0.7,0,0.9,0.2,1.1c0.1,0.1,0.4,0.2,0.6,0.2
					s0.4-0.1,0.6-0.2c0.2-0.2,0.2-0.4,0.2-1.1C27.6,61.9,27.6,61.7,27.4,61.5"/>
				<path class="st0" d="M30.2,64.2h-1.3V61h1.3c0.6,0,1,0.3,1,0.9c0,0.3-0.2,0.6-0.5,0.7c0.3,0.1,0.5,0.4,0.5,0.8
					C31.2,63.9,30.8,64.2,30.2,64.2 M30.1,61.3h-0.9v1.1h0.9c0.4,0,0.7-0.2,0.7-0.6C30.7,61.5,30.5,61.3,30.1,61.3 M30.1,62.7h-0.9
					v1.2h0.9c0.4,0,0.7-0.2,0.7-0.6C30.8,62.9,30.5,62.7,30.1,62.7"/>
				<path class="st0" d="M34,64.2l-0.3-0.7h-1.5L32,64.2h-0.4l1.2-3.2h0.3l1.2,3.2H34z M33,61.5l-0.6,1.7h1.3L33,61.5z"/>
				<polygon class="st0" points="34.9,64.2 34.9,61 35.3,61 35.3,63.9 37,63.9 37,64.2 				"/>
				<path class="st0" d="M40.1,64.2h-1.3V61h1.3c0.6,0,1,0.3,1,0.9c0,0.3-0.2,0.6-0.5,0.7c0.3,0.1,0.6,0.4,0.6,0.8
					C41.1,63.9,40.7,64.2,40.1,64.2 M40,61.3h-0.9v1.1H40c0.4,0,0.7-0.2,0.7-0.6C40.7,61.5,40.4,61.3,40,61.3 M40.1,62.7h-0.9v1.2
					h0.9c0.4,0,0.7-0.2,0.7-0.6C40.7,62.9,40.5,62.7,40.1,62.7"/>
				<path class="st0" d="M43.1,64.2c-0.7,0-1.2-0.4-1.2-1.1V61h0.4v2.1c0,0.5,0.3,0.8,0.8,0.8s0.8-0.3,0.8-0.8V61h0.4v2.1
					C44.2,63.8,43.7,64.2,43.1,64.2"/>
				<path class="st0" d="M46,64.2c-0.5,0-0.8-0.1-1.2-0.4l0.2-0.2c0.3,0.3,0.5,0.3,0.9,0.3c0.5,0,0.8-0.2,0.8-0.6
					c0-0.2,0-0.3-0.2-0.4c-0.1-0.1-0.2-0.1-0.4-0.2l-0.4-0.1c-0.3,0-0.5-0.1-0.6-0.2c-0.2-0.1-0.3-0.3-0.3-0.6
					c0-0.5,0.4-0.9,1.1-0.9c0.4,0,0.7,0.1,1,0.3l-0.2,0.2c-0.2-0.2-0.4-0.3-0.8-0.3c-0.4,0-0.7,0.2-0.7,0.6c0,0.2,0,0.3,0.2,0.4
					c0.1,0.1,0.3,0.1,0.5,0.2l0.4,0.1c0.3,0,0.5,0.1,0.6,0.2c0.2,0.1,0.3,0.4,0.3,0.6C47.2,63.9,46.7,64.2,46,64.2"/>
				<rect x="48" y="61" class="st0" width="0.4" height="3.2"/>
				<polygon class="st0" points="51.4,64.2 49.6,61.6 49.6,64.2 49.3,64.2 49.3,61 49.6,61 51.4,63.5 51.4,61 51.8,61 51.8,64.2 
									"/>
				<polygon class="st0" points="52.7,64.2 52.7,61 54.8,61 54.8,61.3 53.1,61.3 53.1,62.4 54.6,62.4 54.6,62.7 53.1,62.7 
					53.1,63.9 54.8,63.9 54.8,64.2 				"/>
				<path class="st0" d="M56.4,64.2c-0.5,0-0.8-0.1-1.2-0.4l0.2-0.2c0.3,0.3,0.5,0.3,0.9,0.3c0.5,0,0.8-0.2,0.8-0.6
					c0-0.2-0.1-0.3-0.2-0.4c-0.1-0.1-0.2-0.1-0.4-0.2l-0.4-0.1c-0.3,0-0.5-0.1-0.6-0.2c-0.2-0.1-0.3-0.3-0.3-0.6
					c0-0.5,0.4-0.9,1.1-0.9c0.4,0,0.7,0.1,1,0.3l-0.2,0.2c-0.2-0.2-0.4-0.3-0.8-0.3c-0.4,0-0.7,0.2-0.7,0.6c0,0.2,0,0.3,0.2,0.4
					c0.1,0.1,0.3,0.1,0.5,0.2l0.4,0.1c0.3,0,0.5,0.1,0.6,0.2c0.2,0.1,0.3,0.4,0.3,0.6C57.6,63.9,57.1,64.2,56.4,64.2"/>
				<path class="st0" d="M59.2,64.2c-0.5,0-0.8-0.1-1.2-0.4l0.2-0.2c0.3,0.3,0.5,0.3,0.9,0.3c0.5,0,0.8-0.2,0.8-0.6
					c0-0.2-0.1-0.3-0.2-0.4c-0.1-0.1-0.2-0.1-0.4-0.2l-0.3,0c-0.3,0-0.5-0.1-0.6-0.2c-0.2-0.1-0.3-0.3-0.3-0.6
					c0-0.5,0.4-0.9,1.1-0.9c0.4,0,0.7,0.1,1,0.3L60,61.5c-0.2-0.2-0.4-0.3-0.8-0.3c-0.5,0-0.7,0.2-0.7,0.6c0,0.2,0,0.3,0.2,0.4
					c0.1,0.1,0.3,0.1,0.5,0.2l0.4,0.1c0.3,0,0.5,0.1,0.6,0.2c0.2,0.1,0.3,0.4,0.3,0.6C60.4,63.9,59.9,64.2,59.2,64.2"/>
				<path class="st0" d="M63.2,64.2c-0.5,0-0.8-0.1-1.2-0.4l0.2-0.2c0.3,0.3,0.5,0.3,0.9,0.3c0.5,0,0.8-0.2,0.8-0.6
					c0-0.2-0.1-0.3-0.2-0.4c-0.1-0.1-0.2-0.1-0.4-0.2l-0.3,0c-0.3,0-0.5-0.1-0.6-0.2c-0.2-0.1-0.3-0.3-0.3-0.6
					c0-0.5,0.4-0.9,1.1-0.9c0.4,0,0.7,0.1,1,0.3L64,61.5c-0.2-0.2-0.4-0.3-0.8-0.3c-0.4,0-0.7,0.2-0.7,0.6c0,0.2,0,0.3,0.2,0.4
					c0.1,0.1,0.3,0.1,0.5,0.2l0.4,0.1c0.3,0,0.5,0.1,0.6,0.2c0.2,0.1,0.3,0.4,0.3,0.6C64.3,63.9,63.9,64.2,63.2,64.2"/>
				<polygon class="st0" points="65.1,64.2 65.1,61 67.2,61 67.2,61.3 65.5,61.3 65.5,62.4 66.9,62.4 66.9,62.7 65.5,62.7 
					65.5,63.9 67.2,63.9 67.2,64.2 				"/>
				<path class="st0" d="M69.9,64.2l-0.8-1.4h-0.8v1.4h-0.4V61h1.3c0.6,0,1,0.3,1,0.9c0,0.5-0.3,0.8-0.7,0.9l0.8,1.4
					C70.3,64.2,69.9,64.2,69.9,64.2z M69.2,61.3h-0.9v1.2h0.9c0.4,0,0.7-0.2,0.7-0.6C69.9,61.5,69.6,61.3,69.2,61.3"/>
				<polygon class="st0" points="72,64.2 71.7,64.2 70.6,61 71,61 71.8,63.6 72.7,61 73.1,61 				"/>
				<rect x="73.6" y="61" class="st0" width="0.4" height="3.2"/>
				<path class="st0" d="M76,64.2c-0.3,0-0.6-0.1-0.9-0.3c-0.3-0.3-0.3-0.6-0.3-1.3s0-1,0.3-1.3c0.2-0.2,0.5-0.3,0.9-0.3
					c0.6,0,1.1,0.3,1.2,0.9h-0.4c-0.1-0.4-0.4-0.6-0.8-0.6c-0.2,0-0.4,0.1-0.6,0.2c-0.2,0.2-0.2,0.4-0.2,1.1c0,0.7,0,0.9,0.2,1.1
					c0.1,0.1,0.4,0.2,0.6,0.2c0.4,0,0.7-0.3,0.8-0.6h0.4C77.1,63.9,76.6,64.2,76,64.2"/>
				<polygon class="st0" points="78,64.2 78,61 80,61 80,61.3 78.3,61.3 78.3,62.4 79.8,62.4 79.8,62.7 78.3,62.7 78.3,63.9 
					80,63.9 80,64.2 				"/>
				<path class="st0" d="M81.7,64.2c-0.5,0-0.8-0.1-1.2-0.4l0.2-0.2c0.3,0.3,0.5,0.3,0.9,0.3c0.5,0,0.8-0.2,0.8-0.6
					c0-0.2-0.1-0.3-0.2-0.4c-0.1-0.1-0.2-0.1-0.4-0.2l-0.4-0.1c-0.3,0-0.5-0.1-0.6-0.2c-0.2-0.1-0.3-0.3-0.3-0.6
					c0-0.5,0.4-0.9,1.1-0.9c0.4,0,0.7,0.1,1,0.3l-0.2,0.2c-0.2-0.2-0.4-0.3-0.8-0.3c-0.5,0-0.7,0.2-0.7,0.6c0,0.2,0,0.3,0.2,0.4
					c0.1,0.1,0.3,0.1,0.5,0.2l0.4,0.1c0.3,0,0.5,0.1,0.6,0.2c0.2,0.1,0.3,0.4,0.3,0.6C82.8,63.9,82.4,64.2,81.7,64.2"/>
			</g>
		</g>
	</g>
</g>
</svg>
