<?xml version="1.0" encoding="utf-8"?>
<!-- Generator: Adobe Illustrator 23.0.5, SVG Export Plug-In . SVG Version: 6.00 Build 0)  -->
<svg version="1.1" xmlns="http://www.w3.org/2000/svg" xmlns:xlink="http://www.w3.org/1999/xlink" x="0px" y="0px"
	 viewBox="0 0 220 220" style="enable-background:new 0 0 220 220;" xml:space="preserve">
<style type="text/css">
	.st0{fill:#FFFFFF;}
</style>
<g id="Calque_1">
	<path class="st0" d="M95.8,220v-96.1H0C6.2,174,45.6,213.6,95.8,220"/>
</g>
<g id="Calque_2">
	<path class="st0" d="M58.1,20.6c-20.9-0.1-37.8,16.8-37.9,37.6C20.1,79.1,37,96.1,57.8,96.1c20.9,0.1,37.8-16.8,37.9-37.6
		c0,0,0-0.1,0-0.1C95.8,37.5,79,20.6,58.1,20.6C58.1,20.6,58.1,20.6,58.1,20.6"/>
</g>
<g id="Calque_3">
	<path class="st0" d="M219.1,96.1C212.9,46,173.5,6.4,123.4,0v123.9c6.5,50.3,46.2,89.9,96.6,96.1V110
		C220,105.4,219.7,100.7,219.1,96.1"/>
</g>
</svg>
