<svg xmlns="http://www.w3.org/2000/svg" width="120" height="120" viewBox="0 0 120 120">
  <path fill="#4267F5" fill-rule="evenodd" d="M84.4383529,82.3620882 C84.6104118,80.8126765 84.7057059,79.2412059 84.7057059,77.6467941 C84.7057059,54.2556176 65.7439412,35.2938529 42.3527647,35.2938529 C40.7583529,35.2938529 39.1868824,35.3900294 37.6374706,35.5612059 C40.8801176,16.4044412 57.5812941,1.76444118 77.6468824,1.76444118 C100.026882,1.76444118 118.235118,19.9726765 118.235118,42.3526765 C118.235118,62.4182647 103.595118,79.1194412 84.4383529,82.3620882 L84.4383529,82.3620882 Z M37.0657059,42.6041471 C37.0648235,42.5203235 37.0586471,42.4373824 37.0586471,42.3526765 C37.0586471,40.6665 37.1742353,39.0076765 37.3754118,37.3753235 C39.0077647,37.1741471 40.6665882,37.0585588 42.3527647,37.0585588 C42.4374706,37.0585588 42.5204118,37.0647353 42.6051176,37.0656176 L37.0657059,42.6041471 Z M37.4045294,47.5603235 C37.2457059,46.3294412 37.1407059,45.0835588 37.0957059,43.8217941 L43.8218824,37.0956176 C45.0836471,37.1415 46.3304118,37.2456176 47.5604118,37.4044412 L37.4045294,47.5603235 Z M38.2330588,52.0259118 C37.9612941,50.9203235 37.7301176,49.7997353 37.5518824,48.6606176 L48.6607059,37.5517941 C49.7998235,37.7300294 50.9204118,37.9612059 52.026,38.2320882 L38.2330588,52.0259118 Z M39.4577647,56.0944412 C39.0942353,55.0867941 38.7748235,54.0588529 38.4898235,53.0159118 L53.016,38.4897353 C54.0589412,38.7747353 55.0868824,39.0941471 56.0945294,39.4576765 L39.4577647,56.0944412 Z M41.0195294,59.8276765 C40.5765882,58.9038529 40.176,57.9570882 39.8036471,56.9970882 L56.9971765,39.8035588 C57.9571765,40.1759118 58.9039412,40.5773824 59.8277647,41.0194412 L41.0195294,59.8276765 Z M42.8751176,63.2653235 C42.3624706,62.4173824 41.8877647,61.5438529 41.4377647,60.6562059 L60.6562941,41.4376765 C61.5439412,41.8885588 62.4165882,42.3632647 63.2654118,42.8750294 L42.8751176,63.2653235 Z M44.9998235,66.4347353 C44.4227647,65.6547353 43.8792353,64.8509118 43.3577647,64.0303235 L64.0304118,43.3585588 C64.851,43.8791471 65.6557059,44.4235588 66.4357059,44.9997353 L44.9998235,66.4347353 Z M47.376,69.3526765 C46.7380588,68.6379706 46.1283529,67.8994412 45.5415882,67.1415 L67.1415882,45.5415 C67.8995294,46.1282647 68.6389412,46.7388529 69.3536471,47.3767941 L47.376,69.3526765 Z M49.9957059,72.0270882 C49.2977647,71.3759118 48.6236471,70.7017941 47.9724706,70.0038529 L70.0048235,47.9723824 C70.7018824,48.6235588 71.3768824,49.2976765 72.0271765,49.9956176 L49.9957059,72.0270882 Z M52.8580588,74.4588529 C52.1001176,73.8720882 51.3607059,73.2615 50.6468824,72.6235588 L72.6245294,50.6476765 C73.2615882,51.3615 73.8721765,52.1000294 74.4589412,52.8579706 L52.8580588,74.4588529 Z M55.9692353,76.6417941 C55.1486471,76.1212059 54.3448235,75.5767941 53.5648235,74.9997353 L75.0007059,53.5647353 C75.5768824,54.3447353 76.1212941,55.1485588 76.6418824,55.9700294 L55.9692353,76.6417941 Z M59.3433529,78.5617941 C58.4557059,78.1117941 57.5830588,77.6370882 56.7342353,77.1244412 L77.1245294,56.7341471 C77.6371765,57.5829706 78.1118824,58.4556176 78.5618824,59.3432647 L59.3433529,78.5617941 Z M63.0033529,80.1967941 C62.0424706,79.8235588 61.0957059,79.4229706 60.1727647,78.9809118 L78.981,60.1726765 C79.4230588,61.0956176 79.8236471,62.0432647 80.1968824,63.0032647 L63.0033529,80.1967941 Z M66.9836471,81.5097353 C65.9415882,81.2256176 64.9136471,80.9062059 63.9051176,80.5417941 L80.5418824,63.9050294 C80.9062941,64.9135588 81.2257059,65.9415 81.5098235,66.9835588 L66.9836471,81.5097353 Z M71.3398235,82.4485588 C70.2007059,82.2703235 69.0801176,82.0382647 67.9745294,81.7673824 L81.7674706,67.9735588 C82.0383529,69.0791471 82.2695294,70.2006176 82.4486471,71.3397353 L71.3398235,82.4485588 Z M82.9348235,77.3953235 C82.9348235,77.4800294 82.941,77.5629706 82.941,77.6467941 C82.941,79.3329706 82.8254118,80.9917941 82.6251176,82.6250294 C80.9918824,82.8253235 79.3330588,82.9409118 77.6468824,82.9409118 C77.5630588,82.9409118 77.4792353,82.9347353 77.3954118,82.9338529 L82.9348235,77.3953235 Z M72.4401176,82.5959118 L82.596,72.4400294 C82.7539412,73.6700294 82.8589412,74.9167941 82.9039412,76.1776765 L76.1786471,82.9038529 C74.916,82.8579706 73.6701176,82.7538529 72.4401176,82.5959118 L72.4401176,82.5959118 Z M42.3527647,118.235029 C19.9727647,118.235029 1.76452941,100.027676 1.76452941,77.6467941 C1.76452941,57.5812059 16.4045294,40.8800294 35.5612941,37.6373824 C35.3901176,39.1867941 35.2939412,40.7591471 35.2939412,42.3526765 C35.2939412,65.7438529 54.2557059,84.7056176 77.6468824,84.7056176 C79.2412941,84.7056176 80.8136471,84.6103235 82.3621765,84.4391471 C79.1195294,103.595029 62.4183529,118.235029 42.3527647,118.235029 L42.3527647,118.235029 Z M119.999824,42.3526765 C119.999824,18.9615 101.038059,-0.000264705882 77.6468824,-0.000264705882 C56.4854118,-0.000264705882 38.9504118,15.5212059 35.8004118,35.8003235 C15.5212941,38.9503235 -0.000176470588,56.4853235 -0.000176470588,77.6467941 C-0.000176470588,101.037971 18.9615882,119.999735 42.3527647,119.999735 C63.5151176,119.999735 81.0501176,104.478265 84.1992353,84.1991471 C104.478353,81.0500294 119.999824,63.5150294 119.999824,42.3526765 L119.999824,42.3526765 Z"/>
</svg>
