<svg xmlns="http://www.w3.org/2000/svg" width="80" height="80" viewBox="0 0 80 80">
  <path fill="#E23069" fill-rule="evenodd" d="M24.4893333,0 L-7.10542736e-14,24.4893333 L-7.10542736e-14,80 L55.51,80 L79.9993333,55.5093333 L79.9993333,0 L24.4893333,0 Z M24.4893333,3.26533333 L26.122,1.63266667 L78.016,1.63266667 L53.582,24.4893333 L47.8853333,24.4893333 L47.7546667,24.3586667 L47.624,24.4893333 L3.26533333,24.4893333 L24.4893333,3.26533333 Z M55.51,24.9233333 L78.3666667,3.54066667 L78.3666667,53.8773333 L76.734,55.5093333 L55.51,76.7346667 L55.51,24.9233333 Z M1.632,76.5306667 L26.122,52.0406667 L30.3753333,47.7953333 L52.0486667,26.122 L53.8513333,26.122 L53.8773333,26.1506667 L53.8773333,28.0326667 L28.032,53.8773333 L3.54266667,78.3673333 L1.632,78.3673333 L1.632,76.5306667 Z M1.632,71.6326667 L24.4893333,48.7833333 L47.1506667,26.122 L50.89,26.122 L29.796,47.216 L1.632,75.3793333 L1.632,71.6326667 Z M1.632,66.7346667 L24.4893333,43.886 L42.2526667,26.122 L45.9913333,26.122 L26.122,45.992 L1.632,70.4813333 L1.632,66.7346667 Z M1.632,61.8366667 L37.3466667,26.122 L41.094,26.122 L26.122,41.0933333 L1.632,65.5833333 L1.632,61.8366667 Z M1.632,56.9386667 L32.4486667,26.122 L36.196,26.122 L26.122,36.1953333 L1.632,60.6853333 L1.632,56.9386667 Z M1.632,52.0406667 L27.5506667,26.122 L31.298,26.122 L26.122,31.298 L1.632,55.7873333 L1.632,52.0406667 Z M1.632,47.1426667 L22.6526667,26.122 L26.4,26.122 L26.122,26.4 L1.632,50.8893333 L1.632,47.1426667 Z M1.632,42.2446667 L17.7546667,26.122 L21.502,26.122 L1.632,45.992 L1.632,42.2446667 Z M1.632,37.3473333 L12.8573333,26.122 L16.604,26.122 L1.632,41.0933333 L1.632,37.3473333 Z M1.632,32.4486667 L7.95866667,26.122 L11.7066667,26.122 L1.632,36.1953333 L1.632,32.4486667 Z M1.632,26.122 L6.808,26.122 L1.632,31.298 L1.632,26.122 Z M29.1833333,53.8773333 L53.8773333,29.192 L53.8773333,32.9306667 L32.93,53.8773333 L8.44066667,78.3673333 L4.69333333,78.3673333 L29.1833333,53.8773333 Z M53.8773333,34.082 L53.8773333,37.828 L37.8286667,53.8773333 L13.338,78.3673333 L9.59133333,78.3673333 L53.8773333,34.082 Z M37.3546667,55.5093333 L53.8773333,38.9873333 L53.8773333,42.7266667 L42.726,53.8773333 L18.2366667,78.3673333 L14.4893333,78.3673333 L37.3546667,55.5093333 Z M42.2526667,55.5093333 L53.8773333,43.886 L53.8773333,47.6246667 L47.624,53.8773333 L23.1346667,78.3673333 L19.3873333,78.3673333 L42.2526667,55.5093333 Z M47.1506667,55.5093333 L53.8773333,48.7833333 L53.8773333,52.522 L52.5226667,53.8773333 L28.032,78.3673333 L24.2853333,78.3673333 L47.1506667,55.5093333 Z M53.8773333,53.6733333 L53.8773333,57.42 L32.93,78.3673333 L29.1833333,78.3673333 L53.8773333,53.6733333 Z M53.8773333,58.5706667 L53.8773333,62.3186667 L37.8286667,78.3673333 L34.0806667,78.3673333 L53.8773333,58.5706667 Z M53.8773333,63.4693333 L53.8773333,67.216 L42.726,78.3673333 L38.9793333,78.3673333 L53.8773333,63.4693333 Z M53.8773333,68.3673333 L53.8773333,72.114 L47.624,78.3673333 L43.8773333,78.3673333 L53.8773333,68.3673333 Z M53.8773333,73.2646667 L53.8773333,76.196 L51.706,78.3673333 L48.7746667,78.3673333 L53.8773333,73.2646667 Z M53.8773333,77.3466667 L53.8773333,78.3673333 L52.8573333,78.3673333 L53.8773333,77.3466667 Z"/>
</svg>
