<?xml version="1.0" encoding="utf-8"?>
<!-- Generator: Adobe Illustrator 23.0.5, SVG Export Plug-In . SVG Version: 6.00 Build 0)  -->
<svg version="1.1" id="regular" xmlns="http://www.w3.org/2000/svg" xmlns:xlink="http://www.w3.org/1999/xlink" x="0px" y="0px"
	 viewBox="0 0 512 512" style="enable-background:new 0 0 512 512;" xml:space="preserve">
<style type="text/css">
	.st0{fill:#FFFFFF;}
</style>
<path class="st0" d="M348.9,494.3c0.4-0.1,0.8-0.3,1.3-0.4C610.7,390.3,538.6,0,256,0C114.2,0,0,115.6,0,256
	C0,433.6,179.9,560.4,348.9,494.3z M112.7,427.9c18.2-30.5,77-116.7,177.4-146.5c21,53.5,35.7,116,37.2,186.8
	C251.1,493.8,170.9,476.6,112.7,427.9L112.7,427.9z M358.7,454.9c-2.8-68-16.7-128.4-36.5-180.6c44.4-6.9,95.8-2.3,154.1,21.1
	C463.9,364.9,419.5,423.3,358.7,454.9z M479.7,262.2c-64.2-24.1-120.8-27.1-169.8-17.8c-7.6-17.1-15.5-33.5-24-48.6
	c75.2-30,119.6-66.6,139.5-86C460.5,150.5,481.3,203.1,479.7,262.2z M402.7,87.1c-18.1,17.2-60.7,52-133.5,80.4
	C233.4,111,195.2,71.2,171,48.9C248.4,17,337.7,30.6,402.7,87.1z M140.4,64.5c18.3,16.1,58.3,54.6,97,114.3
	c-53.1,17.1-119.7,29.7-200.7,31.4C49.6,148.5,88.1,96.2,140.4,64.5L140.4,64.5z M32.7,242.3c90.7-1.5,164.1-15.8,222.1-35.2
	c8,14.1,15.6,29.4,23,45.3c-101,32.2-164.1,115.2-188.3,152.7C50.4,361.7,28.9,304.9,32.7,242.3L32.7,242.3z"/>
</svg>
