<svg xmlns="http://www.w3.org/2000/svg" width="120" height="120" viewBox="0 0 120 120">
  <path fill="#FFEF83" fill-rule="evenodd" d="M59.495,0 L1.42108547e-14,96.744 L59.495,120 L119.999,96.744 L79.092,31.334 L79.218,31.217 L78.747,30.782 L59.495,0 Z M60.504,5.335 L63.292,9.793 L60.504,12.365 L60.504,5.335 Z M2.871,95.846 L58.487,5.41 L58.487,117.585 L2.871,95.846 Z M60.504,13.681 L63.813,10.627 L65.505,13.333 L60.504,17.947 L60.504,13.681 Z M60.504,19.262 L66.027,14.167 L67.87,17.114 L60.504,23.909 L60.504,19.262 Z M60.504,25.225 L68.392,17.949 L70.084,20.653 L60.504,29.491 L60.504,25.225 Z M60.504,30.806 L70.605,21.488 L72.515,24.541 L60.504,35.621 L60.504,30.806 Z M60.504,36.936 L73.036,25.376 L74.88,28.322 L60.504,41.585 L60.504,36.936 Z M60.504,42.899 L75.402,29.156 L77.094,31.862 L60.504,47.165 L60.504,42.899 Z M60.504,48.48 L77.616,32.695 L79.525,35.749 L60.504,53.295 L60.504,48.48 Z M60.504,54.611 L80.046,36.583 L81.89,39.531 L60.504,59.259 L60.504,54.611 Z M60.504,60.574 L82.411,40.364 L84.103,43.07 L60.504,64.84 L60.504,60.574 Z M60.504,66.155 L84.625,43.904 L86.686,47.199 L60.504,71.351 L60.504,66.155 Z M60.504,72.667 L87.208,48.033 L88.9,50.738 L60.504,76.933 L60.504,72.667 Z M60.504,78.249 L89.421,51.573 L91.331,54.626 L60.504,83.063 L60.504,78.249 Z M60.504,84.379 L91.852,55.46 L93.87,58.686 L93.631,58.466 L60.504,89.025 L60.504,84.379 Z M94.217,59.242 L95.909,61.946 L60.504,94.607 L60.504,90.232 L60.563,90.287 L94.217,59.242 Z M60.504,95.923 L96.431,62.781 L98.34,65.834 L60.504,100.738 L60.504,95.923 Z M60.504,102.053 L98.862,66.668 L100.705,69.616 L60.504,106.7 L60.504,102.053 Z M60.504,108.016 L101.226,70.449 L102.918,73.155 L60.504,112.281 L60.504,108.016 Z M103.44,73.989 L105.132,76.694 L60.999,117.407 L60.504,117.597 L60.504,113.488 L60.563,113.543 L103.44,73.989 Z M105.654,77.529 L107.346,80.233 L71.371,113.42 L63.443,116.467 L105.654,77.529 Z M107.867,81.068 L109.559,83.773 L81.743,109.433 L73.816,112.48 L107.867,81.068 Z M110.081,84.607 L111.773,87.313 L92.115,105.446 L84.187,108.493 L110.081,84.607 Z M112.294,88.147 L113.986,90.851 L102.488,101.459 L94.56,104.506 L112.294,88.147 Z M114.507,91.687 L117.106,95.841 L104.932,100.52 L114.507,91.687 Z"/>
</svg>
