<svg xmlns="http://www.w3.org/2000/svg" width="300.741" height="260" viewBox="0 0 300.741 260">
  <g id="Groupe_33" data-name="Groupe 33" transform="translate(-19.1 -7.4)">
    <g id="Groupe_32" data-name="Groupe 32" transform="translate(19.1 7.4)">
      <g id="Groupe_29" data-name="Groupe 29" transform="translate(9.596 38.62)">
        <path id="Tracé_8" data-name="Tracé 8" d="M62.808,139.516h48.813c2.219,8.983,5.917,14.972,8.875,17.218a17.974,17.974,0,0,0,8.875,2.994c3.7.749,14.052.749,31.8.749,18.49,0,30.324,0,34.022-.749s6.656-.749,9.615-2.246c3.7-1.5,6.656-6.738,8.875-13.475,1.479-5.24,1.479-8.983-.74-11.229s-7.4-2.994-16.271-2.994c-6.656,0-19.969-.749-40.678-1.5-21.448-1.5-36.24-1.5-42.157-2.246-12.573-.749-23.667-1.5-31.063-3.743-8.136-2.246-14.792-5.989-21.448-10.481C50.235,103.582,39.881,90.856,30.266,72.14,19.172,51.179,17.693,36.956,24.349,27.972c5.917-6.738,17.011-11.229,35.5-12.726C77.6,13.749,115.32,13,172.269,13c40.678,0,68.783,1.5,84.314,2.246,23.667,2.246,39.2,7.486,45.115,14.224q7.766,10.106-4.438,35.933c-.74,1.5-2.219,4.492-4.438,8.235H227.739a34.109,34.109,0,0,0,1.479-10.481c-.74-2.246-1.479-2.994-3.7-4.492-2.958-1.5-8.136-2.246-16.271-2.994-7.4-.749-24.407-.749-50.293-.749q-46.595,0-55.47,2.246c-6.656,1.5-8.136,5.989-6.656,11.978,1.479,6.738,5.917,10.481,11.834,11.978,5.177,1.5,28.1,2.246,68.783,3.743,34.021,1.5,56.209,2.246,67.3,2.994,11.094,1.5,18.49,3.743,23.667,6.738,5.917,3.743,7.4,9.732,7.4,16.469-.74,6.738-5.177,17.218-12.573,30.693-9.615,17.218-17.75,29.945-25.886,38.928-5.917,5.989-11.094,11.229-16.271,13.475a45.045,45.045,0,0,1-18.49,5.989c-7.4,1.5-20.709,1.5-40.678,1.5-16.271,0-28.1-.749-36.24-2.246s-15.532-3.743-21.448-7.486c-6.656-3.743-11.834-8.983-17.011-15.721S76.121,159.728,68.725,147Z" transform="translate(-20.361 -13)" fill="#fff"/>
      </g>
      <g id="Groupe_30" data-name="Groupe 30" transform="translate(109.268 234.121)">
        <path id="Tracé_9" data-name="Tracé 9" d="M81.192,64.979c24.357,0,35.013-25.118,35.013-25.118-8.373,1.522-22.073,1.522-42.625,1.522h0c-17.507,0-29.685-.761-39.58-2.283,0,0,12.178,25.879,36.535,25.879Z" transform="translate(-34 -39.1)" fill="#fff"/>
      </g>
      <g id="Groupe_31" data-name="Groupe 31">
        <path id="Tracé_10" data-name="Tracé 10" d="M316.137,29.473h0c-8.148-9.895-24.444-15.984-51.852-19.029-16.3-1.522-43.7-2.283-85.185-3.045H160.581c-47.407,0-78.519.761-95.556,2.283C44.285,11.967,30.952,17.295,22.8,26.429l.741.761-.741-.761c-2.963,5.328-3.7,11.417-3.7,15.984A44.068,44.068,0,0,0,22.8,59.92l.741,1.522,1.481-1.522c7.407-8.373,20.741-13.7,40.741-15.984,16.3-1.522,47.407-2.283,94.815-2.283H179.1c41.481,0,68.889,1.522,85.185,3.045,27.407,3.045,43.7,8.373,50.37,17.507l1.481,1.522.741-1.522a79.2,79.2,0,0,0,2.963-19.79C319.841,37.846,319.1,33.279,316.137,29.473Z" transform="translate(-19.1 -7.4)" fill="#fff"/>
      </g>
    </g>
  </g>
</svg>
